# AST/ASF file generated using VICON BodyLanguage
# -----------------------------------------------
:version 1.10
:name VICON
:units
  mass 1.0
  length 0.45
  angle deg
:documentation
   .ast/.asf automatically generated from VICON data using
   VICON BodyBuilder and BodyLanguage model FoxedUp or BRILLIANT.MOD
:root
   order TX TY TZ RX RY RZ
   axis XYZ
   position 0 0 0  
   orientation 0 0 0 
:bonedata
  begin
     id 1 
     name lhipjoint
     direction 0.584852 -0.759097 0.285867 
     length 2.43633 
     axis 0 0 0  XYZ
  end
  begin
     id 2 
     name lfemur
     direction 0.34202 -0.939693 0  
     length 7.14704  
     axis 0 0 20  XYZ
    dof rx ry rz
    limits (-160.0 20.0)
           (-70.0 70.0)
           (-60.0 70.0)
  end
  begin
     id 3 
     name ltibia
     direction 0.342022 -0.939692 0   
     length 7.68483   
     axis 0 0 20   XYZ
    dof rx
    limits (-10.0 170.0)
  end
  begin
     id 4 
     name lfoot
     direction 0.0999605 -0.274639 0.956337   
     length 2.40452   
     axis -90 7.62852e-016 20   XYZ
    dof rx rz
    limits (-45.0 90.0)
           (-70.0 20.0)
  end
  begin
     id 5 
     name ltoes
     direction 1.53468e-011 -4.21881e-011 1   
     length 1.19837   
     axis -90 7.62852e-016 20   XYZ
    dof rx
    limits (-90.0 20.0)
  end
  begin
     id 6 
     name rhipjoint
     direction -0.569886 -0.769002 0.289597   
     length 2.40495  
     axis 0 0 0  XYZ 
  end
  begin
     id 7 
     name rfemur
     direction -0.34202 -0.939693 0   
     length 7.45086   
     axis 0 0 -20   XYZ
    dof rx ry rz
    limits (-160.0 20.0)
           (-70.0 70.0)
           (-70.0 60.0)
  end
  begin
     id 8 
     name rtibia
     direction -0.34202 -0.939693 0   
     length 7.76831   
     axis 0 0 -20   XYZ
    dof rx
    limits (-10.0 170.0)
 end
 begin
     id 9 
     name rfoot
     direction -0.0798572 -0.219406 0.97236   
     length 2.35911  
     axis -90 -7.62852e-016 -20   XYZ
    dof rx rz
    limits (-45.0 90.0)
           (-20.0 70.0)
  end
  begin
     id 10 
     name rtoes
     direction -1.53469e-011 -4.21728e-011 1   
     length 1.18261   
     axis -90 -7.62852e-016 -20   XYZ
    dof rx
    limits (-90.0 20.0)
  end
  begin
     id 11 
     name lowerback
     direction 0.0242088 0.999437 0.0232389   
     length 2.1561   
     axis 0 0 0   XYZ
    dof rx ry rz
    limits (-20.0 45.0)
           (-30.0 30.0)
           (-30.0 30.0)
  end
  begin
     id 12 
     name upperback
     direction -0.0356893 0.999013 -0.0264323   
     length 2.14431   
     axis 0 0 0   XYZ
    dof rx ry rz
    limits (-20.0 45.0)
           (-30.0 30.0)
           (-30.0 30.0)
  end
  begin
     id 13 
     name thorax
     direction -0.0472163 0.998194 -0.0371284   
     length 2.16169   
     axis 0 0 0   XYZ
    dof rx ry rz
    limits (-20.0 45.0)
           (-30.0 30.0)
           (-30.0 30.0)
  end
  begin
     id 14 
     name lowerneck
     direction 0.00863244 0.999921 0.00911972   
     length 1.58651   
     axis 0 0 0   XYZ
    dof rx ry rz
    limits (-20.0 45.0)
           (-30.0 30.0)
           (-30.0 30.0)
  end
  begin
     id 15 
     name upperneck
     direction 0.149523 0.979068 -0.138086   
     length 1.57486   
     axis 0 0 0   XYZ
    dof rx ry rz
    limits (-20.0 45.0)
           (-30.0 30.0)
           (-30.0 30.0)
  end
  begin
     id 16
     name head
     direction 0.0445219 0.997708 -0.0509576  
     length 1.6019  
     axis 0 0 0   XYZ
    dof rx ry rz
    limits (-20.0 45.0)
           (-30.0 30.0)
           (-30.0 30.0)
  end
  begin
     id 17 
     name lclavicle
     direction 0.911271 0.381667 -0.154644  
     length 3.80848  
     axis 0 0 0   XYZ
    dof ry rz
    limits (-20.0 10.0)
           (0.0 20.0)
  end
  begin
     id 18 
     name lhumerus
     direction 1 -4.49003e-011 2.1308e-027   
     length 5.19069   
     axis 180 -30 -90   XYZ
    dof rx ry rz
    limits (-60.0 90.0)
           (-90.0 90.0)
           (-90.0 90.0)
  end
  begin
     id 19
     name lradius
     direction 1 -4.48914e-011 4.01554e-027   
     length 3.30016   
     axis 180 -30 -90   XYZ
    dof rx
    limits (-10.0 170.0)
  end
  begin
     id 20
     name lwrist
     direction 1 -4.49003e-011 1.1934e-026   
     length 1.65008   
     axis -8.46377e-015 90 90   XYZ
    dof ry
    limits (-180.0 0.0)
 end
  begin
     id 21 
     name lhand
     direction 1 -4.49034e-011 2.38659e-026   
     length 0.707698   
     axis -1.52313e-014 90 90   XYZ
    dof rx rz
    limits (-90.0 90.0)
           (-45.0 45.0)
  end
  begin
     id 22 
     name lfingers
     direction 1 -4.48691e-011 4.77775e-026   
     length 0.570564   
     axis -3.04623e-014 90 90   XYZ
    dof rx
    limits (0.0 90.0)
  end
  begin
     id 23
     name lthumb
     direction 0.707107 -6.34832e-011 0.707107   
     length 0.819219   
     axis -90 45 -1.62303e-014   XYZ
    dof rx rz
    limits (-45.0 45.0)
           (-45.0 45.0)
  end
  begin
     id 24 
     name rclavicle
     direction -0.815579 0.573708 -0.0754329   
     length 3.54371  
     axis 0 0 0   XYZ 
    dof ry rz
    limits (-10.0 20.0)
           (-20.0 0.0)
  end
  begin
     id 25 
     name rhumerus
     direction -1 -4.48956e-011 3.05351e-028  
     length 5.23924   
     axis 180 30 90   XYZ
    dof rx ry rz
    limits (-90.0 60.0)
           (-90.0 90.0)
           (-90.0 90.0)
  end
  begin
     id 26 
     name rradius
     direction -1 -4.49013e-011 3.53849e-027   
     length 3.32953   
     axis 180 30 90   XYZ
    dof rx
    limits (-10.0 170.0)
  end
  begin
     id 27 
     name rwrist
     direction -1 -4.48901e-011 1.19374e-026   
     length 1.66477   
     axis -8.46377e-015 -90 -90   XYZ
    dof ry
    limits (-180.0 0.0)
  end
  begin
     id 28
     name rhand
     direction -1 -4.48877e-011 2.38764e-026   
     length 0.607414   
     axis -1.52313e-014 -90 -90   XYZ
    dof rx rz
    limits (-90.0 90.0)
           (-45.0 45.0)
  end
  begin
     id 29
     name rfingers
     direction -1 -4.48882e-011 4.77521e-026   
     length 0.489712   
     axis -3.04623e-014 -90 -90   XYZ
    dof rx
    limits (0.0 90.0)
  end
  begin
     id 30
     name rthumb
     direction -0.707107 -6.34974e-011 0.707107   
     length 0.703132   
     axis -90 -45 1.62303e-014   XYZ
    dof rx rz
    limits (-45.0 45.0)
           (-45.0 45.0)
  end
:hierarchy
  begin
    root lhipjoint rhipjoint lowerback
    lhipjoint lfemur
    lfemur ltibia
    ltibia lfoot
    lfoot ltoes
    rhipjoint rfemur
    rfemur rtibia
    rtibia rfoot
    rfoot rtoes
    lowerback upperback
    upperback thorax
    thorax lowerneck lclavicle rclavicle
    lowerneck upperneck
    upperneck head
    lclavicle lhumerus
    lhumerus lradius
    lradius lwrist
    lwrist lhand lthumb
    lhand lfingers
    rclavicle rhumerus
    rhumerus rradius
    rradius rwrist
    rwrist rhand rthumb
    rhand rfingers
  end

#!OML:ASF E:\VariousWalksJay\Project 1\Capture day 1\Session 1\Actor2.ASF
:FULLY-SPECIFIED
:DEGREES
624
root 9.85228 11.5305 15.797 18.646 -43.5418 10.4462
lowerback 41.6334 -2.16075 6.20303
upperback 15.1834 -1.38382 -2.73517
thorax -3.06295 -0.545725 -5.55982
lowerneck -8.0715 2.0102 0.0286552
upperneck -25.1728 1.4625 -5.34634
head -6.31792 0.882635 -1.7604
rclavicle -6.04305e-014 2.0276e-014
rhumerus 64.3206 14.6092 -19.744
rradius 32.8178
rwrist -10.8932
rhand 35.9982 -12.6568
rfingers 7.12502
rthumb 59.0034 -27.4425
lclavicle -6.04305e-014 2.0276e-014
lhumerus 56.4845 -28.503 18.5667
lradius 41.5465
lwrist 0.861421
lhand 17.0051 -11.0017
lfingers 7.12502
lthumb 41.7356 13.6763
rfemur -97.7081 -41.5938 15.0465
rtibia 104.976
rfoot -26.6761 11.4348
rtoes -16.7974
lfemur -113.435 38.6506 -48.9162
ltibia 108.995
lfoot -6.53279 -1.78817
ltoes -17.7976
625
root 9.82578 11.5603 15.883 16.9239 -43.8943 11.3827
lowerback 40.8675 -2.45032 6.39598
upperback 15.0133 -1.68828 -2.78137
thorax -3.07316 -0.686558 -5.60712
lowerneck -8.6201 2.21926 0.0314976
upperneck -23.9377 1.70908 -5.93445
head -5.81073 1.02534 -1.93143
rclavicle -4.77083e-014 3.29983e-014
rhumerus 63.9618 15.1549 -17.1062
rradius 35.1313
rwrist -8.32931
rhand 35.9601 -9.97586
rfingers 7.12502
rthumb 58.9704 -24.7934
lclavicle -4.77083e-014 3.29983e-014
lhumerus 54.6118 -29.9276 16.2027
lradius 44.3694
lwrist 3.17217
lhand 15.7192 -9.61814
lfingers 7.12502
lthumb 40.5282 15.4464
rfemur -95.7466 -42.0744 13.2466
rtibia 104.773
rfoot -27.0115 11.5015
rtoes -17.7661
lfemur -112.438 39.5389 -47.9182
ltibia 109.866
lfoot -3.5608 -2.72588
ltoes -16.3801
626
root 9.79802 11.5881 15.9721 15.3415 -44.2984 12.0937
lowerback 39.9841 -2.55492 6.54196
upperback 14.9209 -1.79335 -2.60642
thorax -2.92007 -0.741388 -5.47377
lowerneck -9.10352 2.43106 -0.182426
upperneck -22.6307 1.99011 -6.51735
head -5.29919 1.19744 -2.05947
rclavicle -3.18055e-015 -5.00937e-014
rhumerus 63.3315 15.6443 -14.1492
rradius 38.229
rwrist -8.92398
rhand 32.3483 -10.5072
rfingers 7.12502
rthumb 55.8048 -28.0472
lclavicle -3.18055e-015 -5.00937e-014
lhumerus 52.6114 -31.0459 14.8056
lradius 47.1359
lwrist 6.44014
lhand 15.9062 -9.22997
lfingers 7.12502
lthumb 40.7039 15.7798
rfemur -93.6659 -42.269 11.4273
rtibia 104.57
rfoot -27.3857 11.4331
rtoes -19.0508
lfemur -111.399 40.5659 -46.5948
ltibia 110.704
lfoot -0.62318 -4.17704
ltoes -15.9845
627
root 9.7686 11.6278 16.0576 13.8859 -44.838 12.6112
lowerback 39.2551 -2.43696 6.5532
upperback 14.7584 -1.66159 -2.27263
thorax -2.84696 -0.700476 -5.18497
lowerneck -9.47761 2.59087 -0.246676
upperneck -21.2773 2.17392 -7.32283
head -4.7914 1.3123 -2.27803
rclavicle 5.24792e-014 1.15295e-014
rhumerus 62.4745 16.0009 -10.7858
rradius 41.8195
rwrist -11.4519
rhand 26.4817 -11.8377
rfingers 7.12502
rthumb 50.5179 -32.7842
lclavicle 5.24792e-014 1.15295e-014
lhumerus 50.6217 -32.1575 13.7975
lradius 49.8721
lwrist 8.94057
lhand 15.4045 -8.48259
lfingers 7.12502
lthumb 40.2322 16.673
rfemur -91.4211 -42.0339 9.57356
rtibia 104.292
rfoot -27.7656 11.223
rtoes -20.2732
lfemur -110.083 41.6421 -44.8388
ltibia 111.411
lfoot 2.36366 -5.74711
ltoes -14.6948
628
root 9.74555 11.6656 16.1556 12.6915 -45.1421 12.9634
lowerback 38.4466 -2.57878 6.67181
upperback 14.6888 -1.82538 -2.10456
thorax -2.68473 -0.783058 -5.02621
lowerneck -10.3642 2.96226 0.202045
upperneck -19.9056 2.64845 -8.13317
head -4.17938 1.5111 -2.57413
rclavicle 4.6118e-014 2.06736e-014
rhumerus 62.0536 15.8714 -7.92039
rradius 45.2956
rwrist -13.5522
rhand 20.8821 -12.5724
rfingers 7.12502
rthumb 45.3559 -35.9304
lclavicle 4.6118e-014 2.06736e-014
lhumerus 48.182 -32.7903 12.842
lradius 52.5613
lwrist 11.0875
lhand 15.3824 -8.15666
lfingers 7.12502
lthumb 40.2115 17.0052
rfemur -89.1949 -41.8924 7.81837
rtibia 103.963
rfoot -27.919 11.3567
rtoes -20.2293
lfemur -108.798 42.2931 -42.8491
ltibia 112.098
lfoot 5.3845 -7.10652
ltoes -12.9806
